<svg width="107" height="87" viewBox="0 0 107 87" fill="none" xmlns="http://www.w3.org/2000/svg">
<g clip-path="url(#clip0)">
<path d="M0 42.7779L37.2681 21.8704L0.54907 0L0 42.7779ZM6.86338 11.2791L24.2964 21.664L6.58884 31.6364L6.86338 11.2791Z" fill="#6DED02"/>
<path d="M17.5695 77.0278L37.1987 87.0001L35.9633 64.9922L17.5695 77.0278ZM19.148 76.959L35.2083 66.4365L36.3065 85.6934L19.148 76.959Z" fill="#6DED02"/>
<path d="M97.6662 43.8096L107 32.4617L92.5187 29.9858L97.6662 43.8096ZM97.8035 42.7779L93.3423 30.6736L105.971 32.8056L97.8035 42.7779Z" fill="#6DED02"/>
<path d="M55.8677 40.3706L55.1814 49.724L54.4264 59.0086L62.8683 54.9508L71.2416 50.9619L63.5547 45.6663L55.8677 40.3706Z" fill="#6DED02"/>
<path d="M92.4489 78.8843L95.5374 82.323L98.6259 85.7617L100.067 81.4289L101.509 77.0273L96.9787 77.9214L92.4489 78.8843Z" fill="#6DED02"/>
</g>
<defs>
<clipPath id="clip0">
<rect width="107" height="87" fill="white"/>
</clipPath>
</defs>
</svg>
